<svg width="40" height="40" viewBox="0 0 40 40" fill="none" xmlns="http://www.w3.org/2000/svg">
<g id="facebook">
<path id="Vector" d="M34.8333 3.3335H5.16665C4.68042 3.3335 4.2141 3.52665 3.87028 3.87047C3.52647 4.21428 3.33331 4.6806 3.33331 5.16683V34.8335C3.33331 35.0743 3.38073 35.3127 3.47287 35.5351C3.565 35.7575 3.70004 35.9596 3.87028 36.1299C4.04052 36.3001 4.24263 36.4351 4.46506 36.5273C4.68749 36.6194 4.92589 36.6668 5.16665 36.6668H21.1333V23.7502H16.8V18.7502H21.1333V15.0002C21.0436 14.1198 21.1475 13.2304 21.4378 12.3944C21.7282 11.5584 22.1979 10.7961 22.8141 10.1608C23.4303 9.52562 24.1779 9.0329 25.0047 8.71723C25.8314 8.40155 26.7173 8.27058 27.6 8.3335C28.8972 8.32551 30.1938 8.39229 31.4833 8.5335V13.0335H28.8333C26.7333 13.0335 26.3333 14.0335 26.3333 15.4835V18.7002H31.3333L30.6833 23.7002H26.3333V36.6668H34.8333C35.0741 36.6668 35.3125 36.6194 35.5349 36.5273C35.7573 36.4351 35.9594 36.3001 36.1297 36.1299C36.2999 35.9596 36.435 35.7575 36.5271 35.5351C36.6192 35.3127 36.6666 35.0743 36.6666 34.8335V5.16683C36.6666 4.92607 36.6192 4.68767 36.5271 4.46524C36.435 4.24281 36.2999 4.04071 36.1297 3.87047C35.9594 3.70023 35.7573 3.56518 35.5349 3.47305C35.3125 3.38092 35.0741 3.3335 34.8333 3.3335Z" fill="#FFAF00"/>
</g>
</svg>
