<svg width="74" height="23" viewBox="0 0 74 23" fill="none" xmlns="http://www.w3.org/2000/svg">
<path id="Vector" d="M21.4149 3.0274C27.1911 3.84095 33.3334 4.93926 38.2147 6.1189C40.6147 6.68839 42.7299 7.33921 44.1943 7.70531C45.6587 8.11209 46.5129 8.4375 46.5129 8.4375C46.5129 8.4375 48.1807 9.04768 50.7434 9.98327C53.306 11.0409 56.723 12.5053 60.1399 14.3357C61.8483 15.19 63.5568 16.2069 65.1432 17.1832C66.7296 18.1594 68.1533 19.0543 69.4143 19.9899C71.8143 21.7797 73.4414 23.0001 73.4414 23.0001C73.4414 23.0001 71.7736 21.8611 69.2923 20.1119C68.0313 19.217 66.5669 18.3628 64.9805 17.4272C63.3941 16.4917 61.6449 15.5154 59.9365 14.7425C56.4789 12.9934 53.062 11.6917 50.4993 10.7155C47.9773 9.86123 46.3095 9.33241 46.3095 9.33241C46.3095 9.33241 45.4553 9.00701 44.0316 8.55955C42.6079 8.15278 40.5333 7.50193 38.1333 6.85109C33.2927 5.54941 27.1504 4.32908 21.4149 3.43417C10.9201 1.88843 0.425308 0.302002 0.425308 0.302002C0.425308 0.302002 10.9201 1.68504 21.4149 3.0274Z" fill="#4F4F4F"/>
</svg>
