<svg width="120" height="13" viewBox="0 0 120 13" fill="none" xmlns="http://www.w3.org/2000/svg">
<g id="Group">
<path id="Vector" d="M0.707764 11.8744C0.707764 11.8744 1.26098 11.9359 2.18301 12.0589C3.16651 12.1203 4.58028 12.1203 6.23994 12.2433C9.62071 12.3047 14.1694 11.9974 18.7181 11.5056C23.2667 10.9524 27.631 10.4607 30.9503 10.0304C34.3925 9.66158 36.7284 9.35424 36.7284 9.35424C36.7284 9.35424 41.4 8.92396 48.9606 8.37074C56.5212 7.81752 67.0324 7.44872 77.7279 6.58816C88.4234 5.7276 99.119 4.31382 106.925 2.83857C108.954 2.46976 110.614 2.10095 112.212 1.85507C113.748 1.54773 115.101 1.24039 116.207 1.05599C118.42 0.625705 119.649 0.318359 119.649 0.318359C119.649 0.318359 118.42 0.564236 116.207 1.05599C115.101 1.30186 113.748 1.6092 112.212 1.91654C110.614 2.22388 108.892 2.5927 106.925 3.02298C99.119 4.62116 88.4234 6.15787 77.7279 7.14137C67.0324 8.12487 56.5212 8.67809 49.0221 9.29277C41.4614 9.96893 36.7898 10.4607 36.7898 10.4607C36.7898 10.4607 34.454 10.6451 31.0118 10.9524C27.631 11.2598 23.2667 11.69 18.7181 12.0589C14.1694 12.4277 9.55924 12.6121 6.17847 12.4891C4.51882 12.3662 3.10504 12.3047 2.12154 12.2433C1.19951 11.9974 0.707764 11.8744 0.707764 11.8744Z" fill="#1D1D1C"/>
</g>
</svg>
