<svg width="90" height="99" viewBox="0 0 90 99" fill="none" xmlns="http://www.w3.org/2000/svg">
<g id="Group">
<path id="Vector" d="M89.5229 3.16611C89.5229 3.16611 89.1377 3.70803 88.4343 4.60939C87.7308 5.51075 86.7687 6.83482 85.4938 8.33401C84.2208 9.77176 82.7524 11.5726 81.2207 13.4331C79.689 15.2936 77.852 17.0834 76.1323 19.0612C74.4145 20.9776 72.5774 22.7674 70.867 24.4381C69.2161 26.172 67.5707 27.7216 66.1171 29.0309C63.2098 31.6496 61.3131 33.3761 61.3131 33.3761C61.3131 33.3761 60.3043 34.2068 58.5398 35.6299C56.7752 37.0529 54.2513 39.1911 51.0441 41.5548C44.8086 46.4721 35.9502 52.7252 27.6116 60.1008C19.2135 67.4131 11.5772 75.9781 7.05166 83.345C5.83087 85.0918 4.97689 86.9111 4.07067 88.4213C3.2855 89.9967 2.50769 91.3263 2.04261 92.4808C1.11246 94.7898 0.51898 96.1249 0.51898 96.1249C0.51898 96.1249 1.05102 94.7879 1.98302 92.4175C2.4481 91.263 3.22774 89.872 3.95148 88.2948C4.85769 86.7845 5.65023 84.9634 6.87286 83.1552C11.2774 75.7232 18.8559 67.0334 27.1963 59.5963C35.4771 52.096 44.2777 45.7182 50.4536 40.7377C53.6626 38.3125 56.1251 36.1724 57.8897 34.7494C59.6542 33.3264 60.6649 32.4343 60.6649 32.4343C60.6649 32.4343 62.6844 30.7114 65.5881 28.2156C67.0399 26.9677 68.7448 25.4814 70.4571 23.7493C72.229 22.0805 74.1257 20.354 75.9031 18.5009C77.621 16.5845 79.5176 14.858 81.1107 12.9993C82.7038 11.1407 84.1704 9.40128 85.503 8.02681C86.776 6.58906 87.861 5.26866 88.5645 4.36731C89.1377 3.70803 89.5229 3.16611 89.5229 3.16611Z" fill="#1D1D1C"/>
</g>
</svg>
