<svg width="84" height="84" viewBox="0 0 84 84" fill="none" xmlns="http://www.w3.org/2000/svg">
<g id="Group 268">
<path id="Vector" d="M19.9432 0.896179C18.5195 1.17323 17.0287 2.09677 16.3755 3.11265C15.8228 3.95702 15.672 5.03886 15.672 8.16567V11.1606L14.9685 11.3321C13.7625 11.6091 12.7408 12.0841 11.9201 12.7174C9.75936 14.4325 9.20662 16.8864 10.5131 19.0765C10.9821 19.8681 12.4561 21.1083 13.4108 21.5041C13.8295 21.6756 14.1478 21.8471 14.131 21.8999C14.0975 21.9395 13.3773 22.454 12.5398 23.0609C7.06266 26.9001 3.14323 32.1379 1.45151 37.8506C0.580523 40.7663 0.597273 40.5156 0.597273 59.2237C0.597273 78.7234 0.513524 77.3513 1.82 79.3302C2.28899 80.0427 2.87523 80.676 3.69597 81.3092C5.03594 82.3647 6.20842 82.9584 8.00064 83.4729L9.22337 83.8292L29.3565 83.8687C51.8346 83.9083 50.7961 83.9479 53.2751 82.9848C56.7758 81.6259 59.037 78.8949 59.3217 75.6889L59.439 74.4355L61.3819 74.3564C63.4756 74.2772 65.0501 74.0529 67.1773 73.5384C68.6346 73.1954 69.1035 72.9051 69.5223 72.1135C69.9243 71.3483 70.5943 69.0527 70.7115 68.0104L70.812 67.0605L72.085 66.414C73.7265 65.5696 76.3729 63.5643 77.7464 62.1262C78.3494 61.5061 79.2706 60.2923 79.8233 59.4216C81.7161 56.4135 82.4028 53.7353 82.4028 49.2628C82.4196 46.5449 82.4196 46.4922 82.8048 46.2547C83.7595 45.6478 83.8935 44.7243 83.3408 42.6001C82.7713 40.3705 81.5988 38.1012 80.1751 36.3993C78.8016 34.7501 76.2389 33.0086 74.2457 32.3622C73.7935 32.217 73.4585 32.0191 73.4585 31.9136C73.4585 31.5442 74.6309 30.3304 75.4349 29.8686C75.8704 29.618 76.4902 29.3409 76.8084 29.2617C78.4331 28.8396 78.9859 28.391 78.9859 27.4938C78.9859 27.1112 78.8519 26.9001 78.3996 26.5439C77.8469 26.1085 77.7464 26.0822 76.9759 26.1349C75.8537 26.2273 73.5757 27.1112 72.4702 27.9028C71.415 28.6548 70.4603 29.7631 69.9075 30.8713C69.5893 31.531 69.4553 31.6497 69.1035 31.6497C68.3498 31.6497 65.9546 32.1643 64.8324 32.5601C62.1859 33.51 59.4055 35.489 57.4458 37.8374C56.2565 39.2886 55.0673 41.1753 54.9165 41.8745C54.7155 42.8904 56.0388 44.0514 57.429 44.0514C57.7472 44.0514 59.104 43.7875 60.4272 43.4577C61.7337 43.1279 62.9062 42.864 63.0067 42.864C63.1239 42.864 64.0284 43.3917 65.0166 44.0514C67.2778 45.5159 68.1321 45.8061 69.941 45.7401C71.0298 45.7006 71.482 45.595 73.358 44.9354L75.5187 44.1701L76.8419 44.8562C77.6124 45.2652 78.2489 45.7006 78.3661 45.8853C78.4499 46.07 78.5671 47.2706 78.6174 48.5371C78.8184 54.8039 76.9257 58.973 72.3195 62.4296C71.5658 62.9838 70.879 63.4455 70.812 63.4455C70.7283 63.4455 70.5608 63.0102 70.4435 62.4956C69.9578 60.2791 68.5006 57.5217 66.7921 55.5428C65.0669 53.5506 61.4322 50.7932 58.2832 49.1044C57.1275 48.4843 56.8763 48.2996 56.8763 48.0094C56.8763 47.8247 56.7088 47.4025 56.5078 47.0859C56.1728 46.5713 55.9215 46.413 54.6151 45.8721C52.7223 45.0805 50.8799 44.5132 48.8364 44.0778C47.4797 43.8007 46.8599 43.748 44.5652 43.7348C41.5335 43.7216 40.2438 43.9327 38.0831 44.777C37.4466 45.0277 36.8604 45.2388 36.7934 45.2388C36.5254 45.2388 35.9056 43.8667 35.8219 43.1279C35.7549 42.6397 35.8386 42.112 36.0396 41.5447C36.4751 40.2913 36.4416 39.7768 35.8554 39.3018C34.8337 38.4575 33.3429 38.6949 32.7232 39.7768C31.5675 41.8481 31.8187 44.6187 33.3429 46.6109C33.6612 47.0331 33.9292 47.4157 33.9292 47.4421C33.9292 47.4817 33.6277 47.9962 33.2592 48.5767C32.204 50.2654 31.8857 51.4528 31.8857 53.5506C31.869 56.176 32.7399 58.7619 34.4819 61.4006C35.4534 62.865 36.0731 63.3136 37.1284 63.3136C37.7314 63.3136 37.7984 63.3664 38.7028 64.4218C41.701 67.9312 45.8215 70.9789 49.6571 72.4829C51.0139 73.0107 54.5648 74.0002 55.1678 74.0002C55.5195 74.0002 55.5363 74.0529 55.5363 74.9633C55.5363 77.47 54.0791 79.3698 51.3824 80.3725L50.2601 80.7947H29.9092H9.55836L8.41938 80.3725C6.37592 79.6073 4.8852 78.0901 4.4497 76.309C4.31571 75.7285 4.28221 71.0317 4.33246 58.498C4.3827 41.7162 4.39945 41.4523 4.7512 40.0011C5.42119 37.2701 6.30892 35.1196 7.6824 32.969L8.38588 31.8476L25.1858 31.7817L42.0025 31.7157L42.4883 31.2803C43.2085 30.6602 43.175 29.9346 42.4045 29.3277L41.835 28.8791H26.3918C16.6937 28.8791 10.9821 28.8264 11.0156 28.7472C11.1663 28.4174 13.8463 26.1349 15.136 25.2378C17.213 23.7997 19.9097 22.3221 20.6467 22.2165C20.8142 22.1901 21.6349 22.1638 22.4891 22.1638C23.8794 22.1506 24.0636 22.1242 24.5326 21.8075C25.4371 21.2138 25.3868 20.1056 24.4153 19.5119C24.0301 19.2612 23.7286 19.248 20.2949 19.248C18.2012 19.248 16.3085 19.1821 15.9567 19.1029C15.1193 18.9182 14.064 18.1662 13.8128 17.5725C13.5448 16.926 13.6955 15.7518 14.1143 15.3296C14.2818 15.1317 14.7173 14.7887 15.069 14.5776L15.7055 14.1686L29.725 14.129L43.7445 14.1027L44.4982 14.4061C45.9555 15.013 46.6589 16.6358 45.9387 17.744C45.5702 18.3113 44.5987 18.9446 43.8617 19.1029C43.4765 19.1953 40.897 19.248 37.2289 19.248C31.4335 19.248 31.199 19.2612 30.73 19.5251C30.0935 19.8813 29.7752 20.6729 30.06 21.2138C30.529 22.0846 30.5122 22.0714 35.2524 22.1506L39.5403 22.2165L41.0478 22.9949C45.0175 25.0795 48.5349 27.982 50.8966 31.1088C51.8849 32.4017 52.3203 32.7052 53.2751 32.7052C54.5146 32.7052 55.3855 31.808 55.0338 30.8713C54.8663 30.3832 53.1913 28.2854 51.9184 26.9397C50.7459 25.7259 47.6304 23.1532 46.4747 22.454C46.0225 22.1901 45.654 21.9263 45.654 21.8867C45.654 21.8471 45.989 21.6756 46.4077 21.5041C47.5132 21.0423 48.7694 19.9869 49.3891 18.9974C49.8916 18.1794 49.9251 18.0474 49.9251 16.6753C49.9251 15.3692 49.8749 15.1449 49.4729 14.4721C49.2216 14.0499 48.8197 13.4958 48.5517 13.2187C47.8482 12.4931 46.3072 11.6619 45.1682 11.398L44.1632 11.1606L44.113 7.65114C44.0627 4.1813 44.0627 4.12853 43.6273 3.4029C43.0243 2.40022 42.1198 1.64819 40.9975 1.21281L40.0428 0.843399L30.2442 0.817024C24.8508 0.803825 20.2279 0.843407 19.9432 0.896179ZM39.7413 4.12853L40.2103 4.44517L40.2606 7.75668L40.3108 11.0682H29.9092H19.5244V7.95458C19.5244 4.73542 19.5747 4.48475 20.2614 4.04938C20.5797 3.83828 21.3501 3.8119 29.9427 3.8119H39.2723L39.7413 4.12853ZM72.6377 35.1064C75.5522 36.2014 77.7799 38.3915 78.9691 41.3468C79.1869 41.8481 79.3879 42.3495 79.4214 42.455C79.5051 42.6529 79.4549 42.6265 77.4784 41.5843C76.7079 41.1753 76.2222 41.0169 75.7867 41.0169C75.4182 41.0169 74.1787 41.36 72.4702 41.9537C70.6278 42.5869 69.6228 42.864 69.3715 42.8112C69.1538 42.7717 68.0148 42.0988 66.8256 41.3336C63.9111 39.4338 63.9279 39.4469 61.9012 39.9483C60.9967 40.1726 60.176 40.3573 60.0755 40.3573C59.7907 40.3573 61.3987 38.5366 62.5209 37.5867C64.2629 36.109 66.2728 35.1591 68.5508 34.7633C70.1923 34.4731 71.1805 34.5522 72.6377 35.1064ZM47.2452 46.888C48.7694 47.1386 51.0641 47.7455 50.9301 47.8643C50.8631 47.9038 50.0926 48.1545 49.2216 48.4052C48.0994 48.7218 47.5132 48.9725 47.2787 49.21C47.0944 49.4211 46.6924 50.4765 46.2905 51.7827C45.788 53.511 45.5535 54.0783 45.2687 54.2762C45.0175 54.4609 44.0627 54.6984 42.4715 54.9754C38.4683 55.7011 38.6191 55.6219 37.7816 57.469C37.4801 58.1418 37.1786 58.6959 37.1284 58.6959C36.9441 58.6959 36.1401 56.651 35.8554 55.49C35.3696 53.4714 35.6376 51.6243 36.6761 49.9092C36.9944 49.3815 37.5471 48.735 37.8989 48.4448C38.6693 47.8511 40.3778 47.1518 41.7513 46.9012C43.041 46.6505 45.788 46.6505 47.2452 46.888ZM54.9668 51.0175C57.5965 52.2576 60.9967 54.5665 62.7722 56.308C66.0216 59.5139 67.5793 63.8017 66.9261 67.7597C66.6748 69.2638 66.2226 70.5699 65.9211 70.7018C65.1506 71.0317 62.1692 71.3615 60.0587 71.3615C54.3471 71.3615 49.6571 69.7255 45.4697 66.2425C43.108 64.2899 40.4616 61.3742 40.4616 60.7277C40.4616 60.4243 41.3158 58.5244 41.5335 58.3529C41.634 58.2606 42.7228 58.0099 43.9455 57.7856C46.4077 57.337 46.8767 57.1787 47.8482 56.4927C48.7862 55.8198 49.2216 55.081 49.8246 53.0096L50.3606 51.2285L51.9016 50.8196C52.7558 50.5953 53.4928 50.3974 53.5431 50.3974C53.5933 50.3842 54.2466 50.6612 54.9668 51.0175Z" fill="#FFAF00"/>
<path id="Vector_2" d="M51.2314 57.9307C50.9467 57.9835 50.5112 58.2341 50.2599 58.4584C49.8747 58.8146 49.8244 58.9729 49.8914 59.4611C49.9752 60.0284 50.1427 60.1867 54.6818 63.7621L59.3885 67.4694H60.2427C60.9965 67.4694 61.1472 67.4166 61.5827 67.034C61.968 66.691 62.0685 66.4799 62.0685 65.9918V65.3717L57.4288 61.704C54.2799 59.2236 52.6049 57.9966 52.2699 57.9307C52.0019 57.8647 51.5329 57.8647 51.2314 57.9307Z" fill="#FFAF00"/>
<path id="Vector_3" d="M41.7682 37.1381C40.4953 37.679 40.5287 39.2358 41.8017 39.7636C42.4885 40.0406 46.1399 40.0406 46.8266 39.7636C47.5134 39.4865 47.8316 39.0643 47.8316 38.4442C47.8316 37.8242 47.5134 37.402 46.8266 37.1249C46.1399 36.8479 42.4215 36.8611 41.7682 37.1381Z" fill="#FFAF00"/>
<path id="Vector_4" d="M12.5231 39.4864C10.3289 40.0537 8.98892 41.5445 8.97217 43.4048C8.97217 44.2624 9.03917 44.5262 9.49141 45.2123C11.4511 48.3259 17.0623 48.194 18.9047 44.988C19.4407 44.0645 19.3905 42.6396 18.7875 41.6501C18.2682 40.7925 17.2968 40.0537 16.1913 39.6579C15.2198 39.3281 13.4778 39.2357 12.5231 39.4864ZM15.0858 42.666C16.208 43.5367 14.7508 44.922 13.3438 44.3151C12.8246 44.104 12.5734 43.4576 12.8246 42.9958C13.0758 42.5076 13.4108 42.3493 14.1311 42.3361C14.4996 42.3361 14.8178 42.4417 15.0858 42.666Z" fill="#FFAF00"/>
<path id="Vector_5" d="M22.8911 46.3074C22.0536 46.9671 22.2211 48.1149 23.2093 48.5767C23.5778 48.7614 24.1306 48.801 25.9563 48.801H28.2343L28.7703 48.4184C29.256 48.0753 29.323 47.9566 29.323 47.3497C29.323 46.7428 29.256 46.6241 28.7703 46.281L28.2343 45.8984H25.8223H23.4103L22.8911 46.3074Z" fill="#FFAF00"/>
<path id="Vector_6" d="M67.1607 48.6559C66.5409 48.9594 66.3232 49.3684 66.1054 50.6481C65.8877 51.8751 66.1557 52.4292 67.1439 52.8118C67.7134 53.0229 67.8809 53.0361 68.4504 52.9042C69.3381 52.6931 69.6731 52.2181 69.9244 50.846C70.0919 49.8565 70.0919 49.6586 69.8406 49.2496C69.3549 48.4448 68.1656 48.181 67.1607 48.6559Z" fill="#FFAF00"/>
<path id="Vector_7" d="M17.9331 54.2631C14.3152 55.1735 12.3052 57.8913 13.2265 60.6223C14.533 64.4747 20.4624 65.8996 24.1808 63.2609C27.514 60.873 26.9445 56.5851 23.0586 54.7777C21.6181 54.118 19.4239 53.8937 17.9331 54.2631ZM21.2161 57.4163C22.1038 57.8781 22.5393 58.4982 22.5393 59.2502C22.5393 60.5959 21.5176 61.4799 19.8929 61.559C18.0504 61.6514 16.7774 60.6487 16.8947 59.1842C16.9617 58.3398 17.2799 57.8913 18.1844 57.4031C18.9549 56.9941 20.4289 56.9941 21.2161 57.4163Z" fill="#FFAF00"/>
<path id="Vector_8" d="M33.5943 68.9736C30.8138 69.686 29.2728 71.8101 29.9931 73.921C31.2493 77.6679 37.6477 78.1165 39.7246 74.6203C40.0261 74.0926 40.1266 73.71 40.1266 72.9447C40.1266 71.2824 39.1216 70.0026 37.2289 69.2242C36.4584 68.9208 34.3647 68.7757 33.5943 68.9736ZM35.889 72.1004C36.5757 72.4434 36.5254 73.3801 35.7885 73.8287C35.6377 73.921 35.2692 74.0002 34.9677 74.0002C33.8622 74.0002 33.2258 73.0239 33.8622 72.3115C34.348 71.7574 35.0515 71.6782 35.889 72.1004Z" fill="#FFAF00"/>
<path id="Vector_9" d="M13.4946 70.1345C12.9921 70.2796 12.3221 70.8865 12.2216 71.3087C12.0876 71.8496 12.5064 72.4829 13.2099 72.8127C13.6621 73.037 14.0474 73.0766 15.7558 73.0766C18.0003 73.0766 18.3855 72.9842 18.9718 72.2982C19.424 71.7705 19.4575 71.4934 19.0723 70.8733C18.6703 70.1873 18.0505 70.0422 15.7223 70.0553C14.6336 70.0553 13.6286 70.0949 13.4946 70.1345Z" fill="#FFAF00"/>
</g>
</svg>
