<svg width="74" height="23" viewBox="0 0 74 23" fill="none" xmlns="http://www.w3.org/2000/svg">
<path id="Vector" d="M52.0265 3.0274C46.2503 3.84095 40.108 4.93926 35.2267 6.1189C32.8267 6.68839 30.7115 7.33921 29.2471 7.70531C27.7827 8.11209 26.9285 8.4375 26.9285 8.4375C26.9285 8.4375 25.2607 9.04768 22.698 9.98327C20.1354 11.0409 16.7185 12.5053 13.3015 14.3357C11.5931 15.19 9.88463 16.2069 8.29821 17.1832C6.71178 18.1594 5.28807 19.0543 4.02707 19.9899C1.6271 21.7797 0 23.0001 0 23.0001C0 23.0001 1.66778 21.8611 4.1491 20.1119C5.41011 19.217 6.8745 18.3628 8.46092 17.4272C10.0473 16.4917 11.7965 15.5154 13.5049 14.7425C16.9625 12.9934 20.3794 11.6917 22.9421 10.7155C25.4641 9.86123 27.1319 9.33241 27.1319 9.33241C27.1319 9.33241 27.9861 9.00701 29.4098 8.55955C30.8335 8.15278 32.9081 7.50193 35.3081 6.85109C40.1487 5.54941 46.291 4.32908 52.0265 3.43417C62.5213 1.88843 73.0161 0.302002 73.0161 0.302002C73.0161 0.302002 62.5213 1.68504 52.0265 3.0274Z" fill="#4F4F4F"/>
</svg>
